<svg xmlns="http://www.w3.org/2000/svg" width="48" height="48" viewBox="0 0 12.7 12.7"><g transform="matrix(.26458 0 0 .26458 -24.58 -527.612)"><circle cx="116.902" cy="-2018.124" r="24" fill="#23cd3f" transform="scale(1 -1)"/><g fill="#fff" transform="translate(-35.098 661.262)"><path fill-rule="evenodd" d="m 142.0332,336.36523 c -0.48115,0.5653 -1.13597,0.96805 -1.93164,0.99805 a 0.750075,0.750075 0 0 1 -0.0273,0 c -0.0254,0 -0.049,-0.007 -0.0742,-0.008 l 0,11.14453 15,0 0,-9 5,0 0,9 4,0 0,-11.14648 c -0.80179,-0.0244 -1.46604,-0.42199 -1.9668,-0.98829 -0.48111,0.5651 -1.13632,0.96805 -1.93164,0.99805 a 0.750075,0.750075 0 0 1 -0.0273,0 c -0.83668,2e-4 -1.52426,-0.41365 -2.04102,-0.99805 -0.48111,0.5651 -1.13632,0.96805 -1.93164,0.99805 a 0.750075,0.750075 0 0 1 -0.0273,0 c -0.83668,2e-4 -1.52426,-0.41365 -2.04102,-0.99805 -0.48111,0.5651 -1.13632,0.96805 -1.93164,0.99805 a 0.750075,0.750075 0 0 1 -0.0273,0 c -0.83668,2e-4 -1.52426,-0.41365 -2.04102,-0.99805 -0.48111,0.5651 -1.13632,0.96805 -1.93164,0.99805 a 0.750075,0.750075 0 0 1 -0.0273,0 c -0.83668,2e-4 -1.52426,-0.41365 -2.04102,-0.99805 -0.48111,0.5651 -1.13632,0.96805 -1.93164,0.99805 a 0.750075,0.750075 0 0 1 -0.0273,0 c -0.83668,2e-4 -1.52426,-0.41365 -2.04102,-0.99805 z M 143,339.5 l 4,0 0,2 -4,0 0,-2 z m 5,0 4,0 0,2 -4,0 0,-2 z m -5,3 4,0 0,2 -4,0 0,-2 z m 5,0 4,0 0,2 -4,0 0,-2 z" transform="translate(0 1020.362)"/><path d="m 162,327.99609 -20,0.004 -4,4.50586 0,1.92383 c -1e-5,1.1435 0.92896,2.07031 2.07422,2.07031 1.07283,-0.0398 1.90867,-0.91747 1.91797,-1.97852 l 0.0176,0 c 0.0493,1.10018 0.95057,1.97882 2.06445,1.97852 1.07227,-0.0404 1.90846,-0.91797 1.91797,-1.97852 l 0.0176,0 c 0.0493,1.10018 0.95057,1.97882 2.06445,1.97852 1.07227,-0.0404 1.90846,-0.91797 1.91797,-1.97852 l 0.0176,0 c 0.0493,1.10018 0.95057,1.97882 2.06445,1.97852 1.07227,-0.0404 1.90846,-0.91797 1.91797,-1.97852 l 0.0176,0 c 0.0493,1.10018 0.95057,1.97882 2.06445,1.97852 1.07227,-0.0404 1.90846,-0.91797 1.91797,-1.97852 l 0.0176,0 c 0.0493,1.10018 0.95057,1.97882 2.06445,1.97852 1.07227,-0.0404 1.90846,-0.91797 1.91797,-1.97852 l 0.0176,0 c 0.0493,1.10018 0.95057,1.97882 2.06445,1.97852 1.1036,-0.0416 1.96472,-0.96826 1.92383,-2.07031 0.002,-1.67968 0.002,-1.9336 0.002,-1.9336 l -4,-4.5 z" transform="translate(0 1020.362)"/><path fill-rule="evenodd" d="m 162.00001,1347.3622 0,-1.5 c 0,-0.5523 -0.44772,-1 -1,-1 l -18,0 c -0.55228,0 -1,0.4477 -1,1 l 0,1.5 z"/></g></g></svg>