<svg height="60" viewBox="0 0 60 60" width="60" xmlns="http://www.w3.org/2000/svg"><g id="Page-1" fill="none" fill-rule="evenodd"><g id="076---Clothes-Marker" fill-rule="nonzero" transform="translate(0 -1)"><path id="Shape" d="m22.29 39.73-12.17-5.26.64-1.81c.1490066-.3958374.5270485-.6584771.95-.66h5.56c.5475185 1.1367403 1.1584816 2.2418156 1.83 3.31.1216106.2139985.2551546.4209917.4.62.8565496 1.3189899 1.7880807 2.587742 2.79 3.8z" fill="#e8edfc"/><path id="Shape" d="m25.87 43.56-9.18 3.96-9.73-4.2 3.16-8.85 12.17 5.26c1.1198768 1.3434001 2.315134 2.6221251 3.58 3.83z" fill="#cad9fc"/><path id="Shape" d="m51.52 60h-11.8l-20.06-8.66-18.22 7.87c-.0410401-.183278-.0271266-.3745886.04-.55l1.93-5.42h.01l7.36-3.18-5.4-2.32 1.58-4.42 9.73 4.2 9.18-3.96c1.2524806 1.2207373 2.596391 2.3440057 4.02 3.36l-4.34 1.87z" fill="#fff"/><path id="Shape" d="m57.58 60h-6.06l-25.97-11.21 4.34-1.87.11.08s.16-.11.45-.32h.01l9.89-4.26 2.65 1.14 4 1.73 4.42 1.91 3.55 1.53h.01l3.54 9.93c.1107754.3063999.0653389.6475555-.1217679.9142822s-.4924222.4255792-.8182321.4257178z" fill="#e8edfc"/><path id="Shape" d="m54.97 48.73-3.55-1.53-4.42-1.91-4-1.73-2.65-1.14-9.89 4.26c3.3321766-2.5196552 6.2797577-5.5110289 8.75-8.88l7.68-3.32 2.6-1.12 1.57 4.42-2.6 1.12-2.23.96 3.04 1.31 3.55 1.53z" fill="#fff"/><path id="Shape" d="m49.49 33.36-10.28 4.44c.43-.59.87-1.22 1.29-1.87.1448454-.1990083.2783894-.4060015.4-.62.6715184-1.0681844 1.2824815-2.1732597 1.83-3.31h5.57c.4217823-.0022114.7988428.2625332.94.66z" fill="#cad9fc"/><path id="Shape" d="m52.82 42.7-6.59-2.84 4.83-2.08z" fill="#cad9fc"/><path id="Shape" d="m52.82 42.7-3.55-1.53-.81-2.27 2.6-1.12z" fill="#cad9fc"/><path id="Shape" d="m51.06 37.78-2.6 1.12-.4-1.12-1.17-3.3 2.6-1.12z" fill="#e8edfc"/><path id="Shape" d="m54.97 48.73-3.55-1.53-1.6-4.5-.55-1.53 3.55 1.53z" fill="#e8edfc"/><path id="Shape" d="m57.58 60h-3c.3258099-.0001386.6311253-.1589911.8182321-.4257178s.2325433-.6078823.1217679-.9142822l-3.54-9.93h-.01l-.55-1.53 3.55 1.53h.01l3.54 9.93c.1107754.3063999.0653389.6475555-.1217679.9142822s-.4924222.4255792-.8182321.4257178z" fill="#cad9fc"/><g fill="#e8edfc"><path id="Shape" d="m39.72 60.0000027-37.3-.0000027c-.47221886.0010852-.88083502-.3283095-.98-.79l18.22-7.87z"/><path id="Shape" d="m10.78 50.06-7.36 3.18 1.96-5.5z"/><path id="Shape" d="m46 18.15c-.0154765 4.8061077-1.1342159 9.5444992-3.27 13.85-.5475185 1.1367403-1.1584816 2.2418156-1.83 3.31-.1216106.2139985-.2551546.4209917-.4.62-.42.65-.86 1.28-1.29 1.87-2.4702423 3.3689711-5.4178234 6.3603448-8.75 8.88h-.01c-.29.21-.45.32-.45.32l-.11-.08c-1.423609-1.0159943-2.7675194-2.1392627-4.02-3.36-1.264866-1.2078749-2.4601232-2.4865999-3.58-3.83-1.0019193-1.212258-1.9334504-2.4810101-2.79-3.8-.1448454-.1990083-.2783894-.4060015-.4-.62-.6715184-1.0681844-1.2824815-2.1732597-1.83-3.31-2.1357841-4.3055008-3.2545235-9.0438923-3.27-13.85-.0000001-5.7162495 3.0495827-10.99828189 7.9999999-13.85640666 4.9504173-2.85812477 11.0495829-2.85812477 16.0000002 0 4.9504172 2.85812477 8 8.14015716 7.9999999 13.85640666z"/></g><path id="Shape" d="m44.58 11.52c-2.5493829-5.77767752-8.2648751-9.50960379-14.58-9.52-.507 0-1 .032-1.5.078 8.2401359.84536801 14.5042648 7.78861495 14.5 16.072-.0154765 4.8061077-1.1342159 9.5444992-3.27 13.85-.5475185 1.1367403-1.1584816 2.2418156-1.83 3.31-.1216106.2139985-.2551546.4209917-.4.62-.42.65-.86 1.28-1.29 1.87-2.2140732 3.010033-4.8052315 5.7235236-7.71 8.074.687.551 1.182.9 1.389 1.046l.111.08s.16-.11.45-.32h.01c3.3321766-2.5196552 6.2797577-5.5110289 8.75-8.88.43-.59.87-1.22 1.29-1.87.1448454-.1990083.2783894-.4060015.4-.62.6715184-1.0681844 1.2824815-2.1732597 1.83-3.31 2.1357841-4.3055008 3.2545235-9.0438923 3.27-13.85.0068661-2.2861835-.4773882-4.5471738-1.42-6.63z" fill="#cad9fc"/><path id="Shape" d="m39.069 18.622-2.959-1.2 2.77 10.67.12.45v.01c-.1 1.358-4.09 2.448-9 2.448s-8.9-1.09-9-2.45v-.01l.12-.45 2.77-10.67-2.959 1.2c-.5122409.2054311-1.0940631-.0429622-1.3-.555l-1.265-3.161c-.2011838-.503934.0362184-1.0763618.535-1.29l4.889-2.1c.267745-.115519.572733-.1075133.834049.021893.2613159.1294063.4525442.3671319.522951.650107.5471086 2.2382123 2.5528902 3.8127549 4.857 3.8127549s4.3098914-1.5745426 4.857-3.8127549c.0704068-.2829751.2616351-.5207007.522951-.650107.261316-.1294063.566304-.137412.834049-.021893l4.889 2.1c.4987816.2136382.7361838.786066.535 1.29l-1.265 3.161c-.0984417.2482394-.2920832.4467925-.5377795.55142-.2456962.1046276-.5230341.1066368-.7702205.00558z" fill="#fff"/><path id="Shape" d="m2.42 60h3c-.32580986-.0001386-.63112528-.1589911-.81823207-.4257178s-.23254332-.6078823-.12176793-.9142822l1.93-5.42h.01c3.433-9.632 6.054-16.944 7.34-20.58.1490066-.3958374.5270485-.6584771.95-.66h-3c-.4229515.0015229-.8009934.2641626-.95.66-1.286 3.64-3.907 10.948-7.34 20.58h-.01l-1.93 5.42c-.11077539.3063999-.06533886.6475555.12176793.9142822s.49242221.4255792.81823207.4257178z" fill="#fff"/><path id="Shape" d="m19.706 4.5 1.22 1.585c-1.9833312 1.54326308-3.5605329 3.54677259-4.595 5.837l-1.831-.81c1.1703864-2.59543154 2.9576126-4.86533932 5.206-6.612z" fill="#fff"/><path id="Shape" d="m.446 59.189c.00080217.0291029.00313875.0581432.007.087.007.051 0 .1.012.155.2024061.9171731 1.01575886 1.5699355 1.955 1.569h55.16c.6509675-.0000951 1.2611606-.3169981 1.6356403-.8494675.3744796-.5324694.4663867-1.213877.2463597-1.8265325l-3.539-9.924c-.0163386-.0438028-.0353751-.0865513-.057-.128l-5.682-15.943c-.2837824-.796824-1.0381507-1.328966-1.884-1.329h-4.022c1.7828206-4.0486884 2.7095408-8.4221813 2.722-12.846.07293-6.4940355-3.5672842-12.46003161-9.3754964-15.36562735-5.8082123-2.90559575-12.765411-2.24102398-17.9185036 1.71162735-.2174984.1635094-.3580213.40940663-.3884855.67980044-.0304643.27039381.0518217.54139407.2274855.74919956.3464638.4093631.9519474.47775952 1.381.156 4.5625706-3.42885175 10.6728984-3.97953532 15.7750099-1.42169768 5.1021115 2.55783765 8.3166609 7.78335478 8.2989901 13.49069768-.0461576 5.9109815-1.7673912 11.6877244-4.964 16.66-.083.144-.172.276-.261.409l-.111.167c-2.6131947 3.9794386-5.8806047 7.4882529-9.664 10.378-1.2005643-.9085125-2.3474859-1.8858166-3.435-2.927l-.007-.007c-2.3561452-2.2334871-4.4451197-4.7328737-6.225-7.448l-.108-.163c-.089-.133-.178-.265-.279-.439-3.1868916-4.9646378-4.9017957-10.730682-4.946-16.63-.00785-2.1451529.445025-4.2669814 1.328-6.222.1473721-.325469.1099139-.7048367-.0982645-.9951992-.2081784-.2903624-.5554496-.4476065-.911-.4125-.3555504.0351066-.6653635.2572302-.8127355.5826992-1.0007902 2.2140702-1.5143718 4.6172639-1.506 7.047.0122317 4.4236351.9382524 8.7970406 2.72 12.846h-4.01c-.8469484.0012624-1.60299.5312504-1.893 1.327l-7.295 20.453c-.02081917.0403914-.03886098.0821548-.054.125l-1.925 5.408c-.09918258.2806749-.13237414.5804256-.097.876zm4.013-.189 15.2-6.566 15.217 6.566zm46.022-19.882.626 1.755-2.349-1.013zm-7.146-6.118h4.476l-5.884 2.541c.51-.841.973-1.689 1.408-2.541zm-3.483 5.612 9.055-3.91.9 2.529-3.973 1.711c-.3662597.158226-.6034196.5190242-.6034196.918s.2371599.759774.6034196.918l6.189 2.667 1.232 3.455-12.51-5.4c-.2528179-.1069663-.5381821-.1069663-.791 0l-4.072 1.752c1.4282359-1.453738 2.7547047-3.0040693 3.97-4.64zm-9.92 9.378c.023 0 .045.01.068.01.1982459-.0003343.3919918-.059119.557-.169.033-.022.175-.119.4-.278l9.4-4.044 13.836 5.972 3.387 9.519h-5.855l-23.65-10.209zm-18.222-14.99h4.954c.481.945.991 1.884 1.565 2.809.106.184.218.354.334.526l.1.144c.186.287.377.56.567.837l-7.85-3.391zm-1 2.812 10.972 4.743c.825.988 1.643 1.887 2.422 2.679l-7.41 3.2-8.475-3.659zm-4.742 13.269 2.285.982-3.117 1.346zm-1.768 4.91 6.973-3.013c.3668805-.1579447.604579-.5190656.604579-.9185s-.2376985-.7605553-.604579-.9185l-4.532-1.947.9-2.532 8.749 3.776c.2530373.109287.5399627.109287.793 0l8.567-3.7c.869.8 1.637 1.449 2.256 1.943l-2.756 1.187c-.3662597.158226-.6034196.5190242-.6034196.918s.2371599.759774.6034196.918l21.527 9.296h-6.754l-19.866-8.578c-.2530373-.109287-.5399627-.109287-.793 0l-16.295 7.038z" fill="#428dff"/><path id="Shape" d="m18.493 8.1c0-.55228475-.4477153-1-1-1h-.01c-.5509494.00550977-.9936419.45563532-.9899779 1.00660006s.452304.99516274 1.003278.99334449c.5509739-.00181825.9966724-.44896763.9966999-.99994455z" fill="#428dff"/><path id="Shape" d="m38.693 19.549c.4929459.1994474 1.0450256.1943724 1.5342217-.0141036.489196-.2084759.8752283-.603187 1.0727783-1.0968964l1.264-3.161c.4074632-1.0054234-.0659016-2.1519093-1.064-2.577l-4.892-2.1c-.5377402-.2319535-1.1503061-.2155276-1.6748429.0449108-.5245367.2604384-.9078953.7385001-1.0481571 1.3070892-.4378381 1.7903711-2.0423692 3.0497949-3.8855 3.0497949s-3.4476619-1.2594238-3.8855-3.0497949c-.1397576-.5684591-.5227163-1.0465489-1.0469557-1.307031-.5242395-.2604821-1.1365766-.276931-1.6740443-.044969l-4.893 2.1c-1.0026171.4228146-1.4793725 1.5728197-1.07 2.581l1.264 3.16c.1973206.4948786.5839357.8905759 1.0741 1.0993322s1.0433612.213316 1.5369.0126678l1.113-.453-2.268 8.736-.12.45c-.0292495.1111475-.039727.2264001-.031.341 0 .012.007.022.008.033 0 .031.015.058.021.089.459 3.151 8.987 3.251 9.972 3.251h.274c1.786-.023 9.5-.3 9.726-3.458v-.01c-.0000221-.0884973-.0117916-.1766001-.035-.262l-.06-.221-2.327-8.949 1.113.453zm-3.55-1.878 2.771 10.677v.005l.036.134c-1.0469807.6567699-2.2341326 1.0572838-3.465 1.169-.247.042-.53.075-.8.111-.167.022-.316.049-.493.068-.141.016-.307.023-.454.037-.825.076-1.723.128-2.738.128-.619 0-1.2-.018-1.746-.048-.189-.011-.353-.03-.533-.043-.343-.026-.689-.051-1-.086-.193-.022-.361-.05-.543-.075-.265-.037-.536-.073-.777-.115-.174-.031-.327-.066-.488-.1-.212-.043-.427-.086-.616-.133-.149-.037-.278-.075-.413-.113-.165-.047-.333-.094-.477-.142-.118-.039-.221-.078-.325-.117-.124-.047-.247-.094-.35-.14-.087-.039-.16-.076-.232-.113s-.164-.087-.228-.128c-.047754-.0303755-.0935142-.0637771-.137-.1-.0288697-.0239858-.0559423-.0500556-.081-.078l.032-.118 2.771-10.672c.095066-.3659535-.0243977-.7542327-.308737-1.0034528-.2843394-.2492201-.6849273-.3167599-1.035263-.1745472l-2.957 1.2-1.265-3.161 4.881-2.1c.6612779 2.6776165 3.0628062 4.5595347 5.8208699 4.561429 2.7580636.0018943 5.1621748-1.8767234 5.8271301-4.553429l4.889 2.1-1.264 3.152-2.958-1.2c-.3503357-.1422127-.7509236-.0746729-1.035263.1745472-.2843393.2492201-.403803.6374993-.308737 1.0034528z" fill="#428dff"/></g></g></svg>